#!OML:ASF \\Waltz\H\Terrain\Patient Classification 1\Animal2\Wednesday\Animal2.ASF
:FULLY-SPECIFIED
:DEGREES
157
root 10.0002 17.5392 -9.82456 332.627 -93.0343 -334.122
lowerback 5.13784 -5.3308 1.09662
upperback -1.43913 -6.96305 2.97556
thorax -4.11575 -3.46667 3.05667
lowerneck 0.576097 7.2105 15.707
upperneck -0.708672 9.78729 -20.0218
head 1.54145 4.83385 -8.532
rclavicle 1.05803e-013 -2.38542e-015
rhumerus -46.4052 40.3893 -83.4811
rradius 63.9139
rwrist 36.0222
rhand 5.62835 25.5193
rfingers 7.12502
rthumb 30.9691 -1.88806
lclavicle 1.05803e-013 -2.38542e-015
lhumerus -56.6277 -48.5192 91.9772
lradius 73.6463
lwrist -7.26518
lhand -15.0482 4.76264
lfingers 7.12502
lthumb 11.1182 34.4481
rfemur -20.6623 -15.372 22.4131
rtibia 48.3042
rfoot -20.6234 -6.43462
rtoes 24.6094
lfemur -6.11329 15.1206 -20.2417
ltibia 32.06
lfoot -27.625 11.4297
ltoes -3.50437
158
root 9.99121 17.5204 -9.85357 333.787 -93.3698 -335.24
lowerback 5.1465 -5.20655 1.18385
upperback -1.50565 -6.79081 2.88251
thorax -4.21799 -3.38206 2.90563
lowerneck 0.466464 6.99661 15.6356
upperneck -0.47074 9.50517 -19.7689
head 1.55679 4.68716 -8.44786
rclavicle -2.32827e-014 2.06736e-014
rhumerus -45.4792 40.211 -83.7684
rradius 64.2167
rwrist 36.1263
rhand 5.29592 25.5729
rfingers 7.12502
rthumb 30.6522 -1.89431
lclavicle -2.32827e-014 2.06736e-014
lhumerus -58.3701 -48.0481 93.2949
lradius 72.3942
lwrist -7.16248
lhand -14.9475 4.03794
lfingers 7.12502
lthumb 11.2154 33.7182
rfemur -20.1825 -14.9377 22.6174
rtibia 48.1439
rfoot -20.7497 -6.56961
rtoes 25.9886
lfemur -6.35349 15.7153 -19.9412
ltibia 32.5955
lfoot -27.6232 11.2225
ltoes -2.85581
159
root 9.98124 17.496 -9.87652 331.676 -93.7602 -332.988
lowerback 5.07064 -5.11618 1.50541
upperback -1.62436 -6.6491 2.86429
thorax -4.34294 -3.31915 2.70095
lowerneck 0.600927 6.76661 15.7951
upperneck -0.326729 9.22484 -19.7741
head 1.53085 4.55391 -8.49928
rclavicle -4.11484e-014 3.18055e-015
rhumerus -44.6238 40.037 -84.1391
rradius 64.5259
rwrist 36.3082
rhand 5.33356 25.7795
rfingers 7.12502
rthumb 30.6881 -1.68094
lclavicle -4.11484e-014 3.18055e-015
lhumerus -60.2432 -47.9394 95.036
lradius 70.6275
lwrist -6.42135
lhand -15.0188 3.998
lfingers 7.12502
lthumb 11.1466 33.6819
rfemur -19.8179 -14.6562 23.0527
rtibia 47.845
rfoot -20.873 -6.66049
rtoes 26.5016
lfemur -6.7392 16.3125 -19.4666
ltibia 33.1819
lfoot -27.7948 10.4812
ltoes -1.0041
160
root 9.9729 17.4675 -9.88827 331.621 -93.915 -332.842
lowerback 5.16945 -5.10443 1.91474
upperback -1.80488 -6.60185 2.65052
thorax -4.66029 -3.30519 2.27857
lowerneck 0.593162 6.60062 15.8977
upperneck -0.0124483 9.03416 -19.5687
head 1.57922 4.45799 -8.45721
rclavicle -1.49585e-014 -1.59028e-014
rhumerus -43.9951 39.6952 -84.7994
rradius 64.9192
rwrist 36.5951
rhand 5.74117 26.0984
rfingers 7.12502
rthumb 31.0767 -1.28846
lclavicle -1.49585e-014 -1.59028e-014
lhumerus -62.2674 -47.8801 96.8346
lradius 68.6345
lwrist -5.73798
lhand -15.4684 3.89633
lfingers 7.12502
lthumb 10.7129 33.6032
rfemur -19.424 -14.6581 23.1817
rtibia 47.4191
rfoot -21.0701 -6.48305
rtoes 26.2366
lfemur -7.12992 16.6324 -19.3059
ltibia 33.7959
lfoot -28.1063 9.78737
ltoes 0.781057
161
root 9.96596 17.4436 -9.90053 337.763 -93.8779 -338.94
lowerback 5.26731 -5.04486 1.782
upperback -1.91997 -6.53046 2.39205
thorax -4.85225 -3.26548 2.09697
lowerneck 0.372629 6.45469 15.789
upperneck 0.351195 8.84423 -19.3382
head 1.66754 4.34972 -8.36216
rclavicle -2.81032e-014 -2.38542e-014
rhumerus -43.1376 39.386 -85.1384
rradius 65.1997
rwrist 36.9241
rhand 5.91833 26.2886
rfingers 7.12502
rthumb 31.2455 -1.06584
lclavicle -2.81032e-014 -2.38542e-014
lhumerus -64.0203 -47.8231 98.5514
lradius 66.7961
lwrist -5.3225
lhand -16.2636 3.02105
lfingers 7.12502
lthumb 9.94589 32.7661
rfemur -19.0085 -14.5457 22.7847
rtibia 46.91
rfoot -21.5513 -6.36613
rtoes 25.2503
lfemur -7.48955 16.9132 -19.686
ltibia 34.4048
lfoot -28.2616 9.73026
ltoes -0.000796933
162
root 9.95808 17.425 -9.91117 340.503 -94.0977 -341.606
lowerback 5.23824 -4.93601 1.81077
upperback -1.94869 -6.38537 2.30936
thorax -4.88084 -3.19491 1.98184
lowerneck 0.282475 6.32092 15.7225
upperneck 0.497374 8.66362 -19.3658
head 1.68985 4.25209 -8.36675
rclavicle -2.31336e-014 -1.03368e-014
rhumerus -42.0485 39.4755 -85.2869
rradius 65.3419
rwrist 36.9918
rhand 5.84729 26.0651
rfingers 7.12502
rthumb 31.1778 -1.30232
lclavicle -2.31336e-014 -1.03368e-014
lhumerus -65.1803 -47.424 99.7136
lradius 65.3285
lwrist -5.33177
lhand -16.0405 2.28653
lfingers 7.12502
lthumb 10.1611 32.0212
rfemur -18.6557 -14.171 22.7292
rtibia 46.3277
rfoot -22.1865 -6.32223
rtoes 25.1739
lfemur -7.82158 17.0671 -19.7951
ltibia 34.9604
lfoot -28.3411 10.0655
ltoes -1.6084
163
root 9.94877 17.4009 -9.92429 340.235 -94.4344 -341.375
lowerback 5.36263 -4.80468 2.03576
upperback -1.98296 -6.1912 2.22652
thorax -5.02336 -3.10537 1.77048
lowerneck 0.294758 6.18545 15.9292
upperneck 0.613493 8.49586 -19.5022
head 1.70604 4.16779 -8.45794
rclavicle 5.79457e-014 -1.66979e-014
rhumerus -41.2107 39.4732 -85.6756
rradius 65.4428
rwrist 36.9051
rhand 5.65983 25.7525
rfingers 7.12502
rthumb 30.9991 -1.64913
lclavicle 5.79457e-014 -1.66979e-014
lhumerus -66.0959 -46.7068 100.527
lradius 63.8035
lwrist -5.4114
lhand -15.6363 2.27152
lfingers 7.12502
lthumb 10.551 31.9867
rfemur -18.2077 -13.8838 22.9289
rtibia 45.6753
rfoot -22.6614 -6.1048
rtoes 25.4717
lfemur -7.96029 17.184 -19.6081
ltibia 35.5119
lfoot -28.4568 10.4571
ltoes -3.02277
164
root 9.93822 17.3744 -9.94884 343.548 -94.6645 -344.87
lowerback 5.6481 -4.67873 1.80067
upperback -2.00835 -6.03279 2.11158
thorax -5.20076 -3.01844 1.7938
lowerneck 0.268152 6.10399 15.9136
upperneck 0.720898 8.3917 -19.4603
head 1.71896 4.11359 -8.44593
rclavicle 5.13361e-014 -5.56597e-015
rhumerus -40.3289 39.2806 -85.9538
rradius 65.4436
rwrist 37.093
rhand 5.53814 25.5691
rfingers 7.12502
rthumb 30.8831 -1.85463
lclavicle 5.13361e-014 -5.56597e-015
lhumerus -67.0683 -46.0443 101.605
lradius 61.9488
lwrist -5.28106
lhand -15.4686 2.47904
lfingers 7.12502
lthumb 10.7127 32.1859
rfemur -17.6365 -13.6516 22.8037
rtibia 45.0035
rfoot -23.2019 -5.90131
rtoes 25.2129
lfemur -7.94983 17.5921 -19.6204
ltibia 36.1227
lfoot -28.7537 10.3826
ltoes -3.11869
165
root 9.92433 17.3531 -9.97257 344.687 -95.0156 -346.017
lowerback 5.69363 -4.60268 1.80936
upperback -2.04069 -5.92893 2.10131
thorax -5.26362 -2.96707 1.77431
lowerneck 0.230539 6.11558 15.7833
upperneck 0.90632 8.42153 -19.433
head 1.77633 4.12229 -8.40974
rclavicle -3.01407e-014 8.74653e-015
rhumerus -39.1744 39.2111 -86.0677
rradius 65.3501
rwrist 37.4896
rhand 5.39856 25.6123
rfingers 7.12502
rthumb 30.75 -1.83653
lclavicle -3.01407e-014 8.74653e-015
lhumerus -67.7923 -45.2498 102.54
lradius 59.9311
lwrist -5.52756
lhand -14.9525 2.23323
lfingers 7.12502
lthumb 11.2106 31.9137
rfemur -17.2774 -13.2284 22.9443
rtibia 44.3723
rfoot -24.2051 -5.89261
rtoes 25.5347
lfemur -8.1868 18.1033 -19.4415
ltibia 36.7673
lfoot -29.1067 9.9939
ltoes -1.9927
166
root 9.91153 17.3287 -9.98622 343.284 -95.3764 -344.469
lowerback 5.56429 -4.57787 2.20887
upperback -2.06125 -5.86983 2.12031
thorax -5.25155 -2.95165 1.55907
lowerneck 0.0602376 6.17993 15.8614
upperneck 1.22095 8.52857 -19.6456
head 1.92865 4.15858 -8.47967
rclavicle -4.72859e-014 2.54444e-014
rhumerus -37.9704 39.2764 -86.2466
rradius 65.2014
rwrist 37.7104
rhand 5.20301 25.9749
rfingers 7.12502
rthumb 30.5636 -1.5088
lclavicle -4.72859e-014 2.54444e-014
lhumerus -68.3003 -44.4451 103.28
lradius 57.8604
lwrist -5.62343
lhand -15.1877 1.36133
lfingers 7.12502
lthumb 10.9837 31.054
rfemur -17.1378 -13.0385 23.3425
rtibia 43.8564
rfoot -25.3952 -5.69517
rtoes 26.966
lfemur -8.62163 18.4487 -19.1164
ltibia 37.406
lfoot -29.2708 9.68983
ltoes -1.14421
167
root 9.89781 17.302 -9.99898 344.723 -95.636 -345.775
lowerback 5.37364 -4.53133 2.2876
upperback -2.0348 -5.81043 2.09405
thorax -5.12669 -2.92595 1.46378
lowerneck -0.10453 6.2405 15.6908
upperneck 1.30299 8.59892 -19.6595
head 1.98642 4.18075 -8.44399
rclavicle 2.81529e-014 -2.46493e-014
rhumerus -36.7652 39.3905 -86.3869
rradius 65.0687
rwrist 37.7445
rhand 5.26316 26.1362
rfingers 7.12502
rthumb 30.621 -1.33684
lclavicle 2.81529e-014 -2.46493e-014
lhumerus -68.4888 -43.6122 103.892
lradius 55.7142
lwrist -5.67227
lhand -15.0253 1.20534
lfingers 7.12502
lthumb 11.1404 30.8896
rfemur -17.0754 -13.104 23.4251
rtibia 43.4995
rfoot -26.1319 -5.0806
rtoes 29.8858
lfemur -9.00733 18.8585 -19.1009
ltibia 38.026
lfoot -29.3429 9.54396
ltoes -1.30424
168
root 9.8779 17.2738 -10.015 346.611 -96.0384 -347.576
lowerback 5.11072 -4.42149 2.22102
upperback -1.96576 -5.67978 2.09445
thorax -4.89899 -2.86021 1.45967
lowerneck 0.0748062 6.28374 15.4146
upperneck 0.960776 8.63372 -19.466
head 1.84271 4.21278 -8.3378
rclavicle -1.10723e-013 3.81667e-014
rhumerus -35.6012 39.5494 -86.4969
rradius 64.9078
rwrist 37.7165
rhand 5.10554 25.7159
rfingers 7.12502
rthumb 30.4706 -1.78514
lclavicle -1.10723e-013 3.81667e-014
lhumerus -68.2104 -42.5958 104.209
lradius 53.2733
lwrist -6.20901
lhand -14.3904 2.10933
lfingers 7.12502
lthumb 11.7527 31.7596
rfemur -16.9978 -12.9777 23.4923
rtibia 43.3056
rfoot -26.5641 -4.78341
rtoes 31.987
lfemur -9.25397 19.3883 -19.0796
ltibia 38.6039
lfoot -29.3986 9.79783
ltoes -3.15897
169
root 9.85847 17.2472 -10.034 347.524 -96.5102 -348.474
lowerback 5.00285 -4.32543 2.21704
upperback -1.90976 -5.5564 2.12172
thorax -4.77664 -2.79916 1.46532
lowerneck 0.153027 6.42468 15.3116
upperneck 0.812164 8.81787 -19.3994
head 1.81243 4.31041 -8.29006
rclavicle -8.07563e-014 -7.15625e-015
rhumerus -34.5106 39.7745 -86.6938
rradius 64.6232
rwrist 37.7019
rhand 5.01787 25.5643
rfingers 7.12502
rthumb 30.387 -1.9522
lclavicle -8.07563e-014 -7.15625e-015
lhumerus -67.8521 -41.4397 104.331
lradius 50.9985
lwrist -7.35528
lhand -13.6677 3.04903
lfingers 7.12502
lthumb 12.4495 32.6582
rfemur -16.8672 -12.642 23.6587
rtibia 43.2589
rfoot -26.9878 -5.09289
rtoes 31.8451
lfemur -9.36422 19.7266 -18.9704
ltibia 39.0966
lfoot -29.5668 10.2824
ltoes -5.33248
170
root 9.84383 17.2286 -10.0571 347.74 -96.9605 -348.748
lowerback 5.1076 -4.1849 2.25407
upperback -1.8997 -5.36156 2.16586
thorax -4.82535 -2.70312 1.48067
lowerneck -0.00989657 6.56966 15.2218
upperneck 1.02042 9.02226 -19.4112
head 1.93282 4.39849 -8.25752
rclavicle 1.14798e-014 -1.74931e-014
rhumerus -33.5225 39.7155 -86.8472
rradius 64.2578
rwrist 37.9046
rhand 5.17518 26.0637
rfingers 7.12502
rthumb 30.5371 -1.42502
lclavicle 1.14798e-014 -1.74931e-014
lhumerus -67.5838 -40.3481 104.478
lradius 48.7942
lwrist -8.53142
lhand -13.2246 2.63717
lfingers 7.12502
lthumb 12.8767 32.2199
rfemur -16.726 -12.2043 23.8493
rtibia 43.3463
rfoot -27.2945 -5.38963
rtoes 31.0268
lfemur -9.3756 20.0342 -18.7562
ltibia 39.518
lfoot -29.7693 10.4557
ltoes -6.12721
